<?xml version="1.0" encoding="UTF-8" standalone="no"?>
<!-- Created with Inkscape (http://www.inkscape.org/) -->

<svg
   width="547.39258"
   height="164.4017"
   viewBox="0 0 547.39258 164.4017"
   version="1.1"
   id="svg1"
   xml:space="preserve"
   inkscape:export-filename="logo-banner-dark.svg"
   inkscape:export-xdpi="96"
   inkscape:export-ydpi="96"
   xmlns:inkscape="http://www.inkscape.org/namespaces/inkscape"
   xmlns:sodipodi="http://sodipodi.sourceforge.net/DTD/sodipodi-0.dtd"
   xmlns="http://www.w3.org/2000/svg"
   xmlns:svg="http://www.w3.org/2000/svg"><sodipodi:namedview
     id="namedview1"
     pagecolor="#ffffff"
     bordercolor="#000000"
     borderopacity="0.25"
     inkscape:showpageshadow="2"
     inkscape:pageopacity="0.0"
     inkscape:pagecheckerboard="0"
     inkscape:deskcolor="#d1d1d1"
     inkscape:document-units="px" /><defs
     id="defs1"><rect
       x="218.32396"
       y="62.281048"
       width="370.02234"
       height="106.22367"
       id="rect12" /><clipPath
       id="clip0_2_16"><rect
         width="256"
         height="256"
         fill="#ffffff"
         transform="matrix(0.866025,0.5,-0.866025,0.5,222,0)"
         id="rect9"
         x="0"
         y="0" /></clipPath><clipPath
       id="clip1_2_16"><rect
         width="256"
         height="256"
         fill="#ffffff"
         transform="matrix(0.866025,-0.5,2.20305e-8,1,222,256)"
         id="rect10"
         x="0"
         y="0" /></clipPath><clipPath
       id="clip2_2_16"><rect
         width="256"
         height="256"
         fill="#ffffff"
         transform="matrix(0.866025,0.5,-2.20305e-8,1,0,128)"
         id="rect11"
         x="0"
         y="0" /></clipPath></defs><g
     inkscape:label="Layer 1"
     inkscape:groupmode="layer"
     id="layer1"
     transform="translate(-13.881158,-27.799143)"><g
       style="fill:none"
       id="g1"
       transform="matrix(0.3210971,0,0,0.3210971,13.88116,27.799142)"><g
         clip-path="url(#clip0_2_16)"
         id="g2"><rect
           width="256"
           height="256"
           transform="matrix(0.866025,0.5,-0.866025,0.5,222,0)"
           fill="#ffffff"
           id="rect1"
           x="0"
           y="0" /><rect
           width="256"
           height="256"
           transform="matrix(0.866025,0.5,-0.866025,0.5,222,0)"
           fill="#bfbfbf"
           id="rect2"
           x="0"
           y="0" /></g><g
         clip-path="url(#clip1_2_16)"
         id="g5"><rect
           width="256"
           height="256"
           transform="matrix(0.866025,-0.5,2.20305e-8,1,222,256)"
           fill="#ffffff"
           id="rect3"
           x="0"
           y="0" /><rect
           width="256"
           height="39"
           transform="matrix(0.866025,-0.5,2.20305e-8,1,222,256)"
           fill="#747474"
           id="rect4"
           x="0"
           y="0" /><rect
           width="256"
           height="217"
           transform="matrix(0.866025,-0.5,2.20305e-8,1,222,295)"
           fill="#474343"
           id="rect5"
           x="0"
           y="0" /></g><g
         clip-path="url(#clip2_2_16)"
         id="g8"><rect
           width="256"
           height="256"
           transform="matrix(0.866025,0.5,-2.20305e-8,1,0,128)"
           fill="#ffffff"
           id="rect6"
           x="0"
           y="0" /><rect
           width="256"
           height="39"
           transform="matrix(0.866025,0.5,-2.20305e-8,1,0,128)"
           fill="#747474"
           id="rect7"
           x="0"
           y="0" /><rect
           width="256"
           height="217"
           transform="matrix(0.866025,0.5,-2.20305e-8,1,0,167)"
           fill="#474343"
           id="rect8"
           x="0"
           y="0" /></g></g><text
       xml:space="preserve"
       id="text1"
       style="font-style:normal;font-variant:normal;font-weight:normal;font-stretch:normal;font-size:12px;font-family:Comfortaa;-inkscape-font-specification:'Comfortaa, Normal';font-variant-ligatures:normal;font-variant-caps:normal;font-variant-numeric:normal;font-variant-east-asian:normal;white-space:pre;shape-inside:url(#rect12);fill:#4d4d4d"
       transform="matrix(13.315776,0,0,13.315776,-2691.3472,-804.43248)"><tspan
         x="218.32422"
         y="73.262864"
         id="tspan1">URN</tspan></text></g></svg>
